<svg xmlns="http://www.w3.org/2000/svg" fill="none" viewBox="0 0 256 256">
  <path fill="#000" d="M0 0h53.333v53.333H0zm0 67.556h53.333v53.333H0zm0 67.555h53.333v53.333H0zm0 67.556h53.333V256H0zM67.555 0h53.333v53.333H67.555zm0 67.556h53.333v53.333H67.555zm0 67.555h53.333v53.333H67.555zm0 67.556h53.333V256H67.555zM135.111 0h53.333v53.333h-53.333zm0 67.556h53.333v53.333h-53.333zm0 67.555h53.333v53.333h-53.333zm0 67.556h53.333V256h-53.333zM202.667 0H256v53.333h-53.333zm0 67.556H256v53.333h-53.333zm0 67.555H256v53.333h-53.333zm0 67.556H256V256h-53.333z"/>
</svg>
