<svg xmlns="http://www.w3.org/2000/svg"  fill="none" viewBox="0 0 256 256">
  <path fill="#000" d="M0 0h39.822v39.822H0zm0 54.044h39.822v39.822H0zm0 54.045h39.822v39.822H0zm0 54.044h39.822v39.822H0zm0 54.045h39.822V256H0zM54.044 0h39.822v39.822H54.044zm0 54.044h39.822v39.822H54.044zm0 54.045h39.822v39.822H54.044zm0 54.044h39.822v39.822H54.044zm0 54.045h39.822V256H54.044zM108.089 0h39.822v39.822h-39.822zm0 54.044h39.822v39.822h-39.822zm0 54.045h39.822v39.822h-39.822zm0 54.044h39.822v39.822h-39.822zm0 54.045h39.822V256h-39.822zM162.133 0h39.822v39.822h-39.822zm0 54.044h39.822v39.822h-39.822zm0 54.045h39.822v39.822h-39.822zm0 54.044h39.822v39.822h-39.822zm0 54.045h39.822V256h-39.822zM216.178 0H256v39.822h-39.822zm0 54.044H256v39.822h-39.822zm0 54.045H256v39.822h-39.822zm0 54.044H256v39.822h-39.822zm0 54.045H256V256h-39.822z"/>
</svg>
