<svg xmlns="http://www.w3.org/2000/svg"  fill="none" viewBox="0 0 256 256">
  <path fill="#000" d="M0 0h30.815v30.815H0V0Zm0 45.037h30.815v30.815H0V45.037Zm0 45.037h30.815v30.815H0V90.074Zm0 45.037h30.815v30.815H0v-30.815Zm0 45.037h30.815v30.815H0v-30.815Zm0 45.037h30.815V256H0v-30.815ZM45.037 0h30.815v30.815H45.037V0Zm0 45.037h30.815v30.815H45.037V45.037Zm0 45.037h30.815v30.815H45.037V90.074Zm0 45.037h30.815v30.815H45.037v-30.815Zm0 45.037h30.815v30.815H45.037v-30.815Zm0 45.037h30.815V256H45.037v-30.815ZM90.074 0h30.815v30.815H90.074V0Zm0 45.037h30.815v30.815H90.074V45.037Zm0 45.037h30.815v30.815H90.074V90.074Zm0 45.037h30.815v30.815H90.074v-30.815Zm0 45.037h30.815v30.815H90.074v-30.815Zm0 45.037h30.815V256H90.074v-30.815ZM135.111 0h30.815v30.815h-30.815V0Zm0 45.037h30.815v30.815h-30.815V45.037Zm0 45.037h30.815v30.815h-30.815V90.074Zm0 45.037h30.815v30.815h-30.815v-30.815Zm0 45.037h30.815v30.815h-30.815v-30.815Zm0 45.037h30.815V256h-30.815v-30.815ZM180.148 0h30.815v30.815h-30.815V0Zm0 45.037h30.815v30.815h-30.815V45.037Zm0 45.037h30.815v30.815h-30.815V90.074Zm0 45.037h30.815v30.815h-30.815v-30.815Zm0 45.037h30.815v30.815h-30.815v-30.815Zm0 45.037h30.815V256h-30.815v-30.815ZM225.185 0H256v30.815h-30.815V0Zm0 45.037H256v30.815h-30.815V45.037Zm0 45.037H256v30.815h-30.815V90.074Zm0 45.037H256v30.815h-30.815v-30.815Zm0 45.037H256v30.815h-30.815v-30.815Zm0 45.037H256V256h-30.815v-30.815Z"/>
</svg>
