<svg xmlns="http://www.w3.org/2000/svg"  fill="none" viewBox="0 0 256 256">
  <path fill="#000" d="M0 0h15.803v15.803H0zm0 30.025h15.803v15.803H0zm0 30.024h15.803v15.803H0zM30.025 0h15.803v15.803H30.025zm0 30.025h15.803v15.803H30.025zm0 30.024h15.803v15.803H30.025zM60.049 0h15.803v15.803H60.049zm0 30.025h15.803v15.803H60.049zm0 30.024h15.803v15.803H60.049zM0 90.074h15.803v15.803H0zm0 30.025h15.803v15.803H0zm0 30.024h15.803v15.803H0zm30.025-60.049h15.803v15.803H30.025zm0 30.025h15.803v15.803H30.025zm0 30.024h15.803v15.803H30.025zm30.024-60.049h15.803v15.803H60.049zm0 30.025h15.803v15.803H60.049zm0 30.024h15.803v15.803H60.049zM0 180.148h15.803v15.803H0zm0 30.025h15.803v15.803H0zm0 30.025h15.803v15.803H0zm30.025-60.05h15.803v15.803H30.025zm0 30.025h15.803v15.803H30.025zm0 30.025h15.803v15.803H30.025zm30.024-60.05h15.803v15.803H60.049zm0 30.025h15.803v15.803H60.049zm0 30.025h15.803v15.803H60.049zM90.074 0h15.803v15.803H90.074zm0 30.025h15.803v15.803H90.074zm0 30.024h15.803v15.803H90.074zM120.099 0h15.803v15.803h-15.803zm0 30.025h15.803v15.803h-15.803zm0 30.024h15.803v15.803h-15.803zM150.123 0h15.803v15.803h-15.803zm0 30.025h15.803v15.803h-15.803zm0 30.024h15.803v15.803h-15.803zM90.074 90.074h15.803v15.803H90.074zm0 30.025h15.803v15.803H90.074zm0 30.024h15.803v15.803H90.074zm30.025-60.049h15.803v15.803h-15.803zm0 30.025h15.803v15.803h-15.803zm0 30.024h15.803v15.803h-15.803zm30.024-60.049h15.803v15.803h-15.803zm0 30.025h15.803v15.803h-15.803zm0 30.024h15.803v15.803h-15.803zm-60.049 30.025h15.803v15.803H90.074zm0 30.025h15.803v15.803H90.074zm0 30.025h15.803v15.803H90.074zm30.025-60.05h15.803v15.803h-15.803zm0 30.025h15.803v15.803h-15.803zm0 30.025h15.803v15.803h-15.803zm30.024-60.05h15.803v15.803h-15.803zm0 30.025h15.803v15.803h-15.803zm0 30.025h15.803v15.803h-15.803zM180.148 0h15.803v15.803h-15.803zm0 30.025h15.803v15.803h-15.803zm0 30.024h15.803v15.803h-15.803zM210.173 0h15.803v15.803h-15.803zm0 30.025h15.803v15.803h-15.803zm0 30.024h15.803v15.803h-15.803zM240.198 0h15.803v15.803h-15.803zm0 30.025h15.803v15.803h-15.803zm0 30.024h15.803v15.803h-15.803zm-60.05 30.025h15.803v15.803h-15.803zm0 30.025h15.803v15.803h-15.803zm0 30.024h15.803v15.803h-15.803zm30.025-60.049h15.803v15.803h-15.803zm0 30.025h15.803v15.803h-15.803zm0 30.024h15.803v15.803h-15.803zm30.025-60.049h15.803v15.803h-15.803zm0 30.025h15.803v15.803h-15.803zm0 30.024h15.803v15.803h-15.803zm-60.05 30.025h15.803v15.803h-15.803zm0 30.025h15.803v15.803h-15.803zm0 30.025h15.803v15.803h-15.803zm30.025-60.05h15.803v15.803h-15.803zm0 30.025h15.803v15.803h-15.803zm0 30.025h15.803v15.803h-15.803zm30.025-60.05h15.803v15.803h-15.803zm0 30.025h15.803v15.803h-15.803zm0 30.025h15.803v15.803h-15.803z"/>
</svg>
